<svg xmlns="http://www.w3.org/2000/svg" width="236" height="32" viewBox="0 0 236 32">
  <g fill="none" transform="translate(1 1)">
    <path fill="#FFF" d="M11.8595745 23.2851064C5.55957447 23.2851064.261702128 18.1531915.261702128 11.8531915.261702128 5.55319149 5.55957447.421276596 11.8595745.421276596 15.3446809.421276596 17.8276596 1.78723404 19.6914894 3.57446809L17.4893617 5.77659574C16.1489362 4.51914894 14.3425532 3.54893617 11.8595745 3.54893617 7.25744681 3.54893617 3.66382979 7.25744681 3.66382979 11.8595745 3.66382979 16.4617021 7.26382979 20.1702128 11.8595745 20.1702128 14.8404255 20.1702128 16.5446809 18.9702128 17.6297872 17.8851064 18.5234043 16.9914894 19.1106383 15.7085106 19.3276596 13.9531915L11.8595745 13.9531915 11.8595745 10.8319149 22.3723404 10.8319149C22.487234 11.387234 22.5382979 12.0574468 22.5382979 12.7851064 22.5382979 15.1276596 21.893617 18.0255319 19.8319149 20.087234 17.8276596 22.1680851 15.2617021 23.2851064 11.8595745 23.2851064zM38.7957447 15.9255319C38.7957447 20.1638298 35.5404255 23.2851064 31.5446809 23.2851064 27.5489362 23.2851064 24.293617 20.1638298 24.293617 15.9255319 24.293617 11.6617021 27.5489362 8.56595745 31.5446809 8.56595745 35.5404255 8.56595745 38.7957447 11.6617021 38.7957447 15.9255319zM35.6170213 15.9255319C35.6170213 13.2765957 33.7276596 11.4638298 31.5382979 11.4638298 29.3489362 11.4638298 27.4595745 13.2765957 27.4595745 15.9255319 27.4595745 18.5489362 29.3489362 20.387234 31.5382979 20.387234 33.7276596 20.387234 35.6170213 18.5489362 35.6170213 15.9255319zM55.0531915 15.9255319C55.0531915 20.1638298 51.7978723 23.2851064 47.8021277 23.2851064 43.806383 23.2851064 40.5510638 20.1638298 40.5510638 15.9255319 40.5510638 11.6617021 43.806383 8.56595745 47.8021277 8.56595745 51.7978723 8.56595745 55.0531915 11.6617021 55.0531915 15.9255319zM51.8808511 15.9255319C51.8808511 13.2765957 49.9914894 11.4638298 47.8021277 11.4638298 45.612766 11.4638298 43.7234043 13.2765957 43.7234043 15.9255319 43.7234043 18.5489362 45.612766 20.387234 47.8021277 20.387234 49.9914894 20.387234 51.8808511 18.5489362 51.8808511 15.9255319zM70.9085106 9.01276596L70.9085106 22.2255319C70.9085106 27.6638298 67.7042553 29.8914894 63.912766 29.8914894 60.3446809 29.8914894 58.2 27.4914894 57.3893617 25.5446809L60.2042553 24.3765957C60.7085106 25.5765957 61.9340426 26.993617 63.912766 26.993617 66.3382979 26.993617 67.8446809 25.487234 67.8446809 22.6723404L67.8446809 21.612766 67.7297872 21.612766C67.0021277 22.506383 65.6106383 23.2851064 63.8553191 23.2851064 60.1787234 23.2851064 56.8021277 20.0808511 56.8021277 15.9510638 56.8021277 11.7957447 60.1723404 8.56595745 63.8553191 8.56595745 65.6106383 8.56595745 67.0021277 9.34468085 67.7297872 10.212766L67.8446809 10.212766 67.8446809 9.01276596 70.9085106 9.01276596zM68.0680851 15.9510638C68.0680851 13.3595745 66.3382979 11.4638298 64.1361702 11.4638298 61.9085106 11.4638298 60.0382979 13.3595745 60.0382979 15.9510638 60.0382979 18.5170213 61.9085106 20.3808674 64.1361702 20.3808674 66.3382979 20.387234 68.0680851 18.5170213 68.0680851 15.9510638z"/>
    <rect width="3.236" height="21.632" x="73.34" y="1.206" fill="#FFF"/>
    <path fill="#FFF" d="M89.2914894,18.3510638 L91.8,20.0234043 C90.9893617,21.2234043 89.0425532,23.2851064 85.6659574,23.2851064 C81.4851064,23.2851064 78.4659574,20.0489362 78.4659574,15.9255319 C78.4659574,11.5468085 81.5106383,8.56595745 85.3021277,8.56595745 C89.1191489,8.56595745 90.9893617,11.6042553 91.6021277,13.2510638 L91.9340426,14.087234 L82.0914894,18.1595745 C82.8446809,19.6340426 84.012766,20.387234 85.6595745,20.387234 C87.312766,20.387234 88.4553191,19.5765957 89.2914894,18.3510638 Z M81.5680851,15.7021277 L88.1489362,12.9702128 C87.7851064,12.0510638 86.7,11.406383 85.4170213,11.406383 C83.7702128,11.412766 81.4851064,12.8617021 81.5680851,15.7021277 Z"/>
    <path fill="#F2F2F2" d="M99.9765957,22.8382979 L99.9765957,2.64255319 L106.155319,2.64255319 C109.257447,2.64255319 111.740426,3.58085106 113.604255,5.45106383 C115.468085,7.3212766 116.4,9.75319149 116.4,12.7468085 C116.4,15.7404255 115.468085,18.1659574 113.604255,20.0425532 C111.740426,21.912766 109.257447,22.8510638 106.155319,22.8510638 L99.9765957,22.8510638 L99.9765957,22.8382979 Z M102.574468,20.3553191 L106.155319,20.3553191 C108.485106,20.3553191 110.33617,19.6851064 111.702128,18.3510638 C113.068085,17.0170213 113.751064,15.1468085 113.751064,12.7340426 C113.751064,10.3468085 113.068085,8.47659574 111.702128,7.13617021 C110.33617,5.7893617 108.491489,5.11914894 106.155319,5.11914894 L102.574468,5.11914894 L102.574468,20.3553191 Z M125.253191,23.2914894 C123.165957,23.2914894 121.468085,22.5957447 120.159574,21.2042553 C118.851064,19.812766 118.2,18.0510638 118.2,15.9319149 C118.2,13.9212766 118.831915,12.1914894 120.102128,10.7425532 C121.37234,9.29361702 122.993617,8.57234043 124.965957,8.57234043 C127.014894,8.57234043 128.655319,9.24255319 129.887234,10.5765957 C131.119149,11.9106383 131.738298,13.6978723 131.738298,15.9382979 L131.706383,16.4170213 L120.785106,16.4170213 C120.861702,17.8085106 121.32766,18.912766 122.182979,19.7170213 C123.038298,20.5276596 124.040426,20.9297872 125.189362,20.9297872 C127.053191,20.9297872 128.310638,20.1382979 128.968085,18.5617021 L131.278723,19.5191489 C130.825532,20.5914894 130.085106,21.4914894 129.051064,22.212766 C128.029787,22.9276596 126.759574,23.2914894 125.253191,23.2914894 Z M128.974468,14.2659574 C128.917021,13.4744681 128.553191,12.7212766 127.889362,12.006383 C127.219149,11.2914894 126.229787,10.9340426 124.914894,10.9340426 C123.957447,10.9340426 123.121277,11.2340426 122.419149,11.8340426 C121.710638,12.4340426 121.225532,13.2446809 120.96383,14.2595745 L128.974468,14.2595745 L128.974468,14.2659574 Z M137.578723,22.8382979 L131.993617,9.01276596 L134.814894,9.01276596 L138.874468,19.7297872 L138.931915,19.7297872 L143.048936,9.01276596 L145.812766,9.01276596 L140.170213,22.8382979 L137.578723,22.8382979 Z M153.082979,23.2914894 C150.995745,23.2914894 149.297872,22.5957447 147.989362,21.2042553 C146.680851,19.812766 146.029787,18.0510638 146.029787,15.9319149 C146.029787,13.9212766 146.661702,12.1914894 147.931915,10.7425532 C149.202128,9.29361702 150.823404,8.57234043 152.795745,8.57234043 C154.844681,8.57234043 156.485106,9.24255319 157.717021,10.5765957 C158.948936,11.9106383 159.561702,13.6978723 159.561702,15.9382979 L159.53617,16.4170213 L148.614894,16.4170213 C148.691489,17.8085106 149.157447,18.912766 150.012766,19.7170213 C150.868085,20.5276596 151.870213,20.9297872 153.019149,20.9297872 C154.882979,20.9297872 156.140426,20.1382979 156.797872,18.5617021 L159.108511,19.5191489 C158.655319,20.5914894 157.914894,21.4914894 156.880851,22.212766 C155.859574,22.9276596 154.589362,23.2914894 153.082979,23.2914894 Z M156.804255,14.2659574 C156.746809,13.4744681 156.382979,12.7212766 155.719149,12.006383 C155.048936,11.2914894 154.059574,10.9340426 152.744681,10.9340426 C151.787234,10.9340426 150.951064,11.2340426 150.248936,11.8340426 C149.540426,12.4340426 149.061702,13.2446809 148.793617,14.2595745 L156.804255,14.2595745 L156.804255,14.2659574 Z M164.374468,22.8382979 L161.782979,22.8382979 L161.782979,2.64255319 L164.374468,2.64255319 L164.374468,22.8382979 Z M168.612766,10.6659574 C169.946809,9.26808511 171.651064,8.56595745 173.719149,8.56595745 C175.787234,8.56595745 177.491489,9.26808511 178.825532,10.6659574 C180.159574,12.0702128 180.829787,13.8191489 180.829787,15.9255319 C180.829787,18.0319149 180.159574,19.787234 178.825532,21.1851064 C177.491489,22.5893617 175.787234,23.2851064 173.719149,23.2851064 C171.651064,23.2851064 169.946809,22.5829787 168.612766,21.1851064 C167.278723,19.787234 166.608511,18.0319149 166.608511,15.9255319 C166.608511,13.8255319 167.278723,12.0702128 168.612766,10.6659574 Z M170.546809,19.5510638 C171.440426,20.4638298 172.5,20.9170213 173.719149,20.9170213 C174.944681,20.9170213 175.997872,20.4638298 176.891489,19.5510638 C177.785106,18.6382979 178.231915,17.4319149 178.231915,15.9255319 C178.231915,14.4191489 177.785106,13.212766 176.891489,12.3 C175.997872,11.387234 174.938298,10.9340426 173.719149,10.9340426 C172.493617,10.9340426 171.440426,11.393617 170.546809,12.3 C169.653191,13.212766 169.206383,14.4191489 169.206383,15.9255319 C169.206383,17.4319149 169.653191,18.6446809 170.546809,19.5510638 Z M190.282979,23.2914894 C189.229787,23.2914894 188.285106,23.0680851 187.448936,22.6148936 C186.612766,22.1617021 185.987234,21.6 185.57234,20.9234043 L185.457447,20.9234043 L185.57234,22.8446809 L185.57234,28.9404255 L182.974468,28.9404255 L182.974468,9.02553191 L185.457447,9.02553191 L185.457447,10.9404255 L185.57234,10.9404255 C185.987234,10.2638298 186.612766,9.70212766 187.448936,9.24893617 C188.285106,8.79574468 189.229787,8.57234043 190.282979,8.57234043 C192.070213,8.57234043 193.614894,9.27446809 194.910638,10.6851064 C196.206383,12.0957447 196.857447,13.8446809 196.857447,15.9319149 C196.857447,18.0191489 196.206383,19.7680851 194.910638,21.1787234 C193.614894,22.5893617 192.070213,23.2914894 190.282979,23.2914894 Z M189.861702,20.9234043 C191.061702,20.9234043 192.102128,20.4702128 192.96383,19.5574468 C193.825532,18.6446809 194.259574,17.4382979 194.259574,15.9319149 C194.259574,14.4255319 193.825532,13.2191489 192.96383,12.306383 C192.102128,11.393617 191.061702,10.9404255 189.861702,10.9404255 C188.63617,10.9404255 187.602128,11.393617 186.746809,12.293617 C185.891489,13.193617 185.46383,14.406383 185.46383,15.9319149 C185.46383,17.4574468 185.891489,18.6702128 186.746809,19.5702128 C187.602128,20.4702128 188.642553,20.9234043 189.861702,20.9234043 Z M205.404255,23.2914894 C203.317021,23.2914894 201.619149,22.5957447 200.310638,21.2042553 C199.002128,19.812766 198.351064,18.0510638 198.351064,15.9319149 C198.351064,13.9212766 198.982979,12.1914894 200.253191,10.7425532 C201.523404,9.29361702 203.144681,8.57234043 205.117021,8.57234043 C207.165957,8.57234043 208.806383,9.24255319 210.038298,10.5765957 C211.270213,11.9106383 211.889362,13.6978723 211.889362,15.9382979 L211.857447,16.4170213 L200.93617,16.4170213 C201.012766,17.8085106 201.478723,18.912766 202.334043,19.7170213 C203.189362,20.5276596 204.191489,20.9297872 205.340426,20.9297872 C207.204255,20.9297872 208.461702,20.1382979 209.119149,18.5617021 L211.429787,19.5191489 C210.976596,20.5914894 210.23617,21.4914894 209.202128,22.212766 C208.174468,22.9276596 206.904255,23.2914894 205.404255,23.2914894 Z M209.125532,14.2659574 C209.068085,13.4744681 208.704255,12.7212766 208.040426,12.006383 C207.370213,11.2914894 206.380851,10.9340426 205.065957,10.9340426 C204.108511,10.9340426 203.27234,11.2340426 202.570213,11.8340426 C201.861702,12.4340426 201.376596,13.2446809 201.114894,14.2595745 L209.125532,14.2595745 L209.125532,14.2659574 Z M216.657447,22.8382979 L214.059574,22.8382979 L214.059574,9.01914894 L216.542553,9.01914894 L216.542553,11.2787234 L216.657447,11.2787234 C216.919149,10.5255319 217.461702,9.90638298 218.278723,9.41489362 C219.095745,8.92340426 219.893617,8.68085106 220.659574,8.68085106 C221.431915,8.68085106 222.082979,8.79574468 222.606383,9.01914894 L221.617021,11.4446809 C221.278723,11.3106383 220.819149,11.2468085 220.231915,11.2468085 C219.293617,11.2468085 218.457447,11.6170213 217.73617,12.3638298 C217.008511,13.1106383 216.651064,14.0808511 216.651064,15.287234 L216.651064,22.8382979 L216.657447,22.8382979 Z M229.034043,23.2914894 C227.489362,23.2914894 226.219149,22.9148936 225.210638,22.1617021 C224.202128,21.4085106 223.468085,20.4702128 222.995745,19.3404255 L225.312766,18.3829787 C226.046809,20.112766 227.297872,20.9808511 229.065957,20.9808511 C229.876596,20.9808511 230.540426,20.8021277 231.057447,20.4446809 C231.574468,20.087234 231.829787,19.6148936 231.829787,19.0340426 C231.829787,18.1340426 231.197872,17.5212766 229.940426,17.2021277 L227.151064,16.5255319 C226.26383,16.3021277 225.42766,15.8744681 224.642553,15.2425532 C223.851064,14.6106383 223.455319,13.7617021 223.455319,12.6893617 C223.455319,11.4702128 223.997872,10.4744681 225.076596,9.71489362 C226.155319,8.95531915 227.438298,8.57234043 228.925532,8.57234043 C230.151064,8.57234043 231.242553,8.85319149 232.2,9.40212766 C233.157447,9.95744681 233.846809,10.7489362 234.261702,11.7893617 L232.002128,12.7212766 C231.491489,11.4957447 230.438298,10.8893617 228.842553,10.8893617 C228.070213,10.8893617 227.419149,11.0489362 226.895745,11.3680851 C226.365957,11.687234 226.104255,12.1212766 226.104255,12.6638298 C226.104255,13.4553191 226.717021,13.9914894 227.93617,14.2723404 L230.674468,14.9234043 C231.970213,15.2234043 232.934043,15.7404255 233.553191,16.4744681 C234.17234,17.2085106 234.485106,18.0382979 234.485106,18.9574468 C234.485106,20.1957447 233.974468,21.2361702 232.959574,22.0595745 C231.938298,22.8765957 230.629787,23.2914894 229.034043,23.2914894 Z"/>
    <path fill="#FFF" d="M11.8595745 23.2851064C5.55957447 23.2851064.261702128 18.1531915.261702128 11.8531915.261702128 5.55319149 5.55957447.421276596 11.8595745.421276596 15.3446809.421276596 17.8276596 1.78723404 19.6914894 3.57446809L17.4893617 5.77659574C16.1489362 4.51914894 14.3425532 3.54893617 11.8595745 3.54893617 7.25744681 3.54893617 3.66382979 7.25744681 3.66382979 11.8595745 3.66382979 16.4617021 7.26382979 20.1702128 11.8595745 20.1702128 14.8404255 20.1702128 16.5446809 18.9702128 17.6297872 17.8851064 18.5234043 16.9914894 19.1106383 15.7085106 19.3276596 13.9531915L11.8595745 13.9531915 11.8595745 10.8319149 22.3723404 10.8319149C22.487234 11.387234 22.5382979 12.0574468 22.5382979 12.7851064 22.5382979 15.1276596 21.893617 18.0255319 19.8319149 20.087234 17.8276596 22.1680851 15.2617021 23.2851064 11.8595745 23.2851064zM38.7957447 15.9255319C38.7957447 20.1638298 35.5404255 23.2851064 31.5446809 23.2851064 27.5489362 23.2851064 24.293617 20.1638298 24.293617 15.9255319 24.293617 11.6617021 27.5489362 8.56595745 31.5446809 8.56595745 35.5404255 8.56595745 38.7957447 11.6617021 38.7957447 15.9255319zM35.6170213 15.9255319C35.6170213 13.2765957 33.7276596 11.4638298 31.5382979 11.4638298 29.3489362 11.4638298 27.4595745 13.2765957 27.4595745 15.9255319 27.4595745 18.5489362 29.3489362 20.387234 31.5382979 20.387234 33.7276596 20.387234 35.6170213 18.5489362 35.6170213 15.9255319zM55.0531915 15.9255319C55.0531915 20.1638298 51.7978723 23.2851064 47.8021277 23.2851064 43.806383 23.2851064 40.5510638 20.1638298 40.5510638 15.9255319 40.5510638 11.6617021 43.806383 8.56595745 47.8021277 8.56595745 51.7978723 8.56595745 55.0531915 11.6617021 55.0531915 15.9255319zM51.8808511 15.9255319C51.8808511 13.2765957 49.9914894 11.4638298 47.8021277 11.4638298 45.612766 11.4638298 43.7234043 13.2765957 43.7234043 15.9255319 43.7234043 18.5489362 45.612766 20.387234 47.8021277 20.387234 49.9914894 20.387234 51.8808511 18.5489362 51.8808511 15.9255319zM70.9085106 9.01276596L70.9085106 22.2255319C70.9085106 27.6638298 67.7042553 29.8914894 63.912766 29.8914894 60.3446809 29.8914894 58.2 27.4914894 57.3893617 25.5446809L60.2042553 24.3765957C60.7085106 25.5765957 61.9340426 26.993617 63.912766 26.993617 66.3382979 26.993617 67.8446809 25.487234 67.8446809 22.6723404L67.8446809 21.612766 67.7297872 21.612766C67.0021277 22.506383 65.6106383 23.2851064 63.8553191 23.2851064 60.1787234 23.2851064 56.8021277 20.0808511 56.8021277 15.9510638 56.8021277 11.7957447 60.1723404 8.56595745 63.8553191 8.56595745 65.6106383 8.56595745 67.0021277 9.34468085 67.7297872 10.212766L67.8446809 10.212766 67.8446809 9.01276596 70.9085106 9.01276596zM68.0680851 15.9510638C68.0680851 13.3595745 66.3382979 11.4638298 64.1361702 11.4638298 61.9085106 11.4638298 60.0382979 13.3595745 60.0382979 15.9510638 60.0382979 18.5170213 61.9085106 20.3808674 64.1361702 20.3808674 66.3382979 20.387234 68.0680851 18.5170213 68.0680851 15.9510638z"/>
    <rect width="3.236" height="21.632" x="73.34" y="1.206" fill="#FFF"/>
    <path fill="#FFF" d="M89.2914894,18.3510638 L91.8,20.0234043 C90.9893617,21.2234043 89.0425532,23.2851064 85.6659574,23.2851064 C81.4851064,23.2851064 78.4659574,20.0489362 78.4659574,15.9255319 C78.4659574,11.5468085 81.5106383,8.56595745 85.3021277,8.56595745 C89.1191489,8.56595745 90.9893617,11.6042553 91.6021277,13.2510638 L91.9340426,14.087234 L82.0914894,18.1595745 C82.8446809,19.6340426 84.012766,20.387234 85.6595745,20.387234 C87.312766,20.387234 88.4553191,19.5765957 89.2914894,18.3510638 Z M81.5680851,15.7021277 L88.1489362,12.9702128 C87.7851064,12.0510638 86.7,11.406383 85.4170213,11.406383 C83.7702128,11.412766 81.4851064,12.8617021 81.5680851,15.7021277 Z"/>
    <path fill="#E8E3E3" d="M99.9765957,22.8382979 L99.9765957,2.64255319 L106.155319,2.64255319 C109.257447,2.64255319 111.740426,3.58085106 113.604255,5.45106383 C115.468085,7.3212766 116.4,9.75319149 116.4,12.7468085 C116.4,15.7404255 115.468085,18.1659574 113.604255,20.0425532 C111.740426,21.912766 109.257447,22.8510638 106.155319,22.8510638 L99.9765957,22.8510638 L99.9765957,22.8382979 Z M102.574468,20.3553191 L106.155319,20.3553191 C108.485106,20.3553191 110.33617,19.6851064 111.702128,18.3510638 C113.068085,17.0170213 113.751064,15.1468085 113.751064,12.7340426 C113.751064,10.3468085 113.068085,8.47659574 111.702128,7.13617021 C110.33617,5.7893617 108.491489,5.11914894 106.155319,5.11914894 L102.574468,5.11914894 L102.574468,20.3553191 Z M125.253191,23.2914894 C123.165957,23.2914894 121.468085,22.5957447 120.159574,21.2042553 C118.851064,19.812766 118.2,18.0510638 118.2,15.9319149 C118.2,13.9212766 118.831915,12.1914894 120.102128,10.7425532 C121.37234,9.29361702 122.993617,8.57234043 124.965957,8.57234043 C127.014894,8.57234043 128.655319,9.24255319 129.887234,10.5765957 C131.119149,11.9106383 131.738298,13.6978723 131.738298,15.9382979 L131.706383,16.4170213 L120.785106,16.4170213 C120.861702,17.8085106 121.32766,18.912766 122.182979,19.7170213 C123.038298,20.5276596 124.040426,20.9297872 125.189362,20.9297872 C127.053191,20.9297872 128.310638,20.1382979 128.968085,18.5617021 L131.278723,19.5191489 C130.825532,20.5914894 130.085106,21.4914894 129.051064,22.212766 C128.029787,22.9276596 126.759574,23.2914894 125.253191,23.2914894 Z M128.974468,14.2659574 C128.917021,13.4744681 128.553191,12.7212766 127.889362,12.006383 C127.219149,11.2914894 126.229787,10.9340426 124.914894,10.9340426 C123.957447,10.9340426 123.121277,11.2340426 122.419149,11.8340426 C121.710638,12.4340426 121.225532,13.2446809 120.96383,14.2595745 L128.974468,14.2595745 L128.974468,14.2659574 Z M137.578723,22.8382979 L131.993617,9.01276596 L134.814894,9.01276596 L138.874468,19.7297872 L138.931915,19.7297872 L143.048936,9.01276596 L145.812766,9.01276596 L140.170213,22.8382979 L137.578723,22.8382979 Z M153.082979,23.2914894 C150.995745,23.2914894 149.297872,22.5957447 147.989362,21.2042553 C146.680851,19.812766 146.029787,18.0510638 146.029787,15.9319149 C146.029787,13.9212766 146.661702,12.1914894 147.931915,10.7425532 C149.202128,9.29361702 150.823404,8.57234043 152.795745,8.57234043 C154.844681,8.57234043 156.485106,9.24255319 157.717021,10.5765957 C158.948936,11.9106383 159.561702,13.6978723 159.561702,15.9382979 L159.53617,16.4170213 L148.614894,16.4170213 C148.691489,17.8085106 149.157447,18.912766 150.012766,19.7170213 C150.868085,20.5276596 151.870213,20.9297872 153.019149,20.9297872 C154.882979,20.9297872 156.140426,20.1382979 156.797872,18.5617021 L159.108511,19.5191489 C158.655319,20.5914894 157.914894,21.4914894 156.880851,22.212766 C155.859574,22.9276596 154.589362,23.2914894 153.082979,23.2914894 Z M156.804255,14.2659574 C156.746809,13.4744681 156.382979,12.7212766 155.719149,12.006383 C155.048936,11.2914894 154.059574,10.9340426 152.744681,10.9340426 C151.787234,10.9340426 150.951064,11.2340426 150.248936,11.8340426 C149.540426,12.4340426 149.061702,13.2446809 148.793617,14.2595745 L156.804255,14.2595745 L156.804255,14.2659574 Z M164.374468,22.8382979 L161.782979,22.8382979 L161.782979,2.64255319 L164.374468,2.64255319 L164.374468,22.8382979 Z M168.612766,10.6659574 C169.946809,9.26808511 171.651064,8.56595745 173.719149,8.56595745 C175.787234,8.56595745 177.491489,9.26808511 178.825532,10.6659574 C180.159574,12.0702128 180.829787,13.8191489 180.829787,15.9255319 C180.829787,18.0319149 180.159574,19.787234 178.825532,21.1851064 C177.491489,22.5893617 175.787234,23.2851064 173.719149,23.2851064 C171.651064,23.2851064 169.946809,22.5829787 168.612766,21.1851064 C167.278723,19.787234 166.608511,18.0319149 166.608511,15.9255319 C166.608511,13.8255319 167.278723,12.0702128 168.612766,10.6659574 Z M170.546809,19.5510638 C171.440426,20.4638298 172.5,20.9170213 173.719149,20.9170213 C174.944681,20.9170213 175.997872,20.4638298 176.891489,19.5510638 C177.785106,18.6382979 178.231915,17.4319149 178.231915,15.9255319 C178.231915,14.4191489 177.785106,13.212766 176.891489,12.3 C175.997872,11.387234 174.938298,10.9340426 173.719149,10.9340426 C172.493617,10.9340426 171.440426,11.393617 170.546809,12.3 C169.653191,13.212766 169.206383,14.4191489 169.206383,15.9255319 C169.206383,17.4319149 169.653191,18.6446809 170.546809,19.5510638 Z M190.282979,23.2914894 C189.229787,23.2914894 188.285106,23.0680851 187.448936,22.6148936 C186.612766,22.1617021 185.987234,21.6 185.57234,20.9234043 L185.457447,20.9234043 L185.57234,22.8446809 L185.57234,28.9404255 L182.974468,28.9404255 L182.974468,9.02553191 L185.457447,9.02553191 L185.457447,10.9404255 L185.57234,10.9404255 C185.987234,10.2638298 186.612766,9.70212766 187.448936,9.24893617 C188.285106,8.79574468 189.229787,8.57234043 190.282979,8.57234043 C192.070213,8.57234043 193.614894,9.27446809 194.910638,10.6851064 C196.206383,12.0957447 196.857447,13.8446809 196.857447,15.9319149 C196.857447,18.0191489 196.206383,19.7680851 194.910638,21.1787234 C193.614894,22.5893617 192.070213,23.2914894 190.282979,23.2914894 Z M189.861702,20.9234043 C191.061702,20.9234043 192.102128,20.4702128 192.96383,19.5574468 C193.825532,18.6446809 194.259574,17.4382979 194.259574,15.9319149 C194.259574,14.4255319 193.825532,13.2191489 192.96383,12.306383 C192.102128,11.393617 191.061702,10.9404255 189.861702,10.9404255 C188.63617,10.9404255 187.602128,11.393617 186.746809,12.293617 C185.891489,13.193617 185.46383,14.406383 185.46383,15.9319149 C185.46383,17.4574468 185.891489,18.6702128 186.746809,19.5702128 C187.602128,20.4702128 188.642553,20.9234043 189.861702,20.9234043 Z M205.404255,23.2914894 C203.317021,23.2914894 201.619149,22.5957447 200.310638,21.2042553 C199.002128,19.812766 198.351064,18.0510638 198.351064,15.9319149 C198.351064,13.9212766 198.982979,12.1914894 200.253191,10.7425532 C201.523404,9.29361702 203.144681,8.57234043 205.117021,8.57234043 C207.165957,8.57234043 208.806383,9.24255319 210.038298,10.5765957 C211.270213,11.9106383 211.889362,13.6978723 211.889362,15.9382979 L211.857447,16.4170213 L200.93617,16.4170213 C201.012766,17.8085106 201.478723,18.912766 202.334043,19.7170213 C203.189362,20.5276596 204.191489,20.9297872 205.340426,20.9297872 C207.204255,20.9297872 208.461702,20.1382979 209.119149,18.5617021 L211.429787,19.5191489 C210.976596,20.5914894 210.23617,21.4914894 209.202128,22.212766 C208.174468,22.9276596 206.904255,23.2914894 205.404255,23.2914894 Z M209.125532,14.2659574 C209.068085,13.4744681 208.704255,12.7212766 208.040426,12.006383 C207.370213,11.2914894 206.380851,10.9340426 205.065957,10.9340426 C204.108511,10.9340426 203.27234,11.2340426 202.570213,11.8340426 C201.861702,12.4340426 201.376596,13.2446809 201.114894,14.2595745 L209.125532,14.2595745 L209.125532,14.2659574 Z M216.657447,22.8382979 L214.059574,22.8382979 L214.059574,9.01914894 L216.542553,9.01914894 L216.542553,11.2787234 L216.657447,11.2787234 C216.919149,10.5255319 217.461702,9.90638298 218.278723,9.41489362 C219.095745,8.92340426 219.893617,8.68085106 220.659574,8.68085106 C221.431915,8.68085106 222.082979,8.79574468 222.606383,9.01914894 L221.617021,11.4446809 C221.278723,11.3106383 220.819149,11.2468085 220.231915,11.2468085 C219.293617,11.2468085 218.457447,11.6170213 217.73617,12.3638298 C217.008511,13.1106383 216.651064,14.0808511 216.651064,15.287234 L216.651064,22.8382979 L216.657447,22.8382979 Z M229.034043,23.2914894 C227.489362,23.2914894 226.219149,22.9148936 225.210638,22.1617021 C224.202128,21.4085106 223.468085,20.4702128 222.995745,19.3404255 L225.312766,18.3829787 C226.046809,20.112766 227.297872,20.9808511 229.065957,20.9808511 C229.876596,20.9808511 230.540426,20.8021277 231.057447,20.4446809 C231.574468,20.087234 231.829787,19.6148936 231.829787,19.0340426 C231.829787,18.1340426 231.197872,17.5212766 229.940426,17.2021277 L227.151064,16.5255319 C226.26383,16.3021277 225.42766,15.8744681 224.642553,15.2425532 C223.851064,14.6106383 223.455319,13.7617021 223.455319,12.6893617 C223.455319,11.4702128 223.997872,10.4744681 225.076596,9.71489362 C226.155319,8.95531915 227.438298,8.57234043 228.925532,8.57234043 C230.151064,8.57234043 231.242553,8.85319149 232.2,9.40212766 C233.157447,9.95744681 233.846809,10.7489362 234.261702,11.7893617 L232.002128,12.7212766 C231.491489,11.4957447 230.438298,10.8893617 228.842553,10.8893617 C228.070213,10.8893617 227.419149,11.0489362 226.895745,11.3680851 C226.365957,11.687234 226.104255,12.1212766 226.104255,12.6638298 C226.104255,13.4553191 226.717021,13.9914894 227.93617,14.2723404 L230.674468,14.9234043 C231.970213,15.2234043 232.934043,15.7404255 233.553191,16.4744681 C234.17234,17.2085106 234.485106,18.0382979 234.485106,18.9574468 C234.485106,20.1957447 233.974468,21.2361702 232.959574,22.0595745 C231.938298,22.8765957 230.629787,23.2914894 229.034043,23.2914894 Z"/>
  </g>
</svg>
