<?xml version="1.0" encoding="UTF-8"?>
<svg width="117px" height="32px" viewBox="0 0 117 32" version="1.1" xmlns="http://www.w3.org/2000/svg" xmlns:xlink="http://www.w3.org/1999/xlink">
    <title>Group</title>
    <g id="Page-1" stroke="none" stroke-width="1" fill="none" fill-rule="evenodd">
        <g id="video-conference-desktop" transform="translate(-32.000000, -12.000000)" fill="#FFFFFF">
            <g id="Group" transform="translate(32.000000, 12.000000)">
                <path d="M36.581455,0.128574832 C35.909644,0.471639213 34.4216943,0.55714626 33.1766931,0.55714626 L20.8909789,0.55714626 C13.9855968,0.55714626 9.74756552,2.81711426 9.05288361,6.20476531 C8.93566914,6.79081178 8.97706952,7.39017636 9.16716933,7.91905102 L11.4624074,7.91905102 C11.6325042,4.25981445 15.5679449,2.17143197 21.6957408,2.17143197 L25.1147884,2.15714626 C23.12222,3.32924988 21.4607556,4.86025483 20.181455,7.74762245 C20.1600135,7.80479426 20.1338558,7.86188074 20.1052646,7.91905102 L23.5528836,7.91905102 C24.8464912,4.71722245 25.7416394,3.08625559 27.0766931,2.15714626 L32.0528836,2.15714626 C34.7658649,2.08567807 35.9381164,1.40059921 36.7671693,0.35714626 L36.581455,0.128574832 Z M20.1052646,7.91905102 C19.6035518,9.10544036 18.1306863,12.8506457 16.981455,15.9095272 C16.5783617,16.9815714 16.2154192,17.9662404 15.9481217,18.7238129 C14.6230749,22.2829901 13.7758703,23.9139463 12.7195503,24.5142891 L12.8909789,24.8428605 C15.8569613,25.0143882 17.618895,23.4968461 18.7624074,20.6952415 C19.3184455,19.3373261 19.9663526,17.5676194 20.5624074,15.9095272 C21.1255815,14.3514929 21.6403061,12.8909977 21.9862169,11.9761939 C22.5837118,10.4038647 23.0940585,9.06255426 23.5528836,7.93333674 L20.1052646,7.91905102 Z M9.16716933,7.91905102 C9.50737352,8.90533369 10.3392928,9.69041102 11.6243122,9.81905102 L11.8005027,9.69047959 C11.543212,9.23307159 11.4462093,8.49074321 11.4576455,8.03333674 C11.4590749,8.00474397 11.4609781,7.96192797 11.4624074,7.93333674 L9.16716933,7.91905102 Z M63.6528836,0.400003403 C60.1937644,0.428596165 55.921263,1.21552036 52.933836,7.39047959 C52.3763808,7.47624417 51.848396,7.64746702 51.3766931,7.91905102 C51.0765301,8.1048735 50.8054109,8.30460988 50.5481217,8.57619388 L50.6766931,8.86190817 C51.1626924,8.69038207 51.7334627,8.64762245 52.3766931,8.64762245 C51.9764554,9.66248569 51.1486124,11.8796743 50.3052646,14.1238129 C49.8095206,14.7895272 49.3106009,15.3841847 48.8147884,15.9095272 L48.8005027,15.9095272 C46.8136531,18.0250259 44.9013438,19.0238023 43.4290741,19.0380986 C42.4142109,19.0523844 42.0005027,18.5100956 42.0005027,17.5238129 C41.9862093,17.0378137 42.0861575,16.3812316 42.1862169,15.9095272 C42.214796,15.8094785 42.2290528,15.7095775 42.2576455,15.6238129 C44.244495,14.6375318 46.228047,13.5344034 48.0147884,11.6761939 C49.0010604,10.6041482 49.6862093,9.54825788 49.7147884,8.43333674 C49.7147884,8.24751578 49.7005209,8.07628226 49.6576455,7.91905102 C49.4718246,7.2043554 48.8439648,6.84762245 47.7719312,6.83333674 C47.7031419,6.83244378 47.6368044,6.83081788 47.5671693,6.83333674 C46.5226543,6.87113026 45.3877149,7.28923007 44.3290741,7.91905102 C43.5286124,8.40505026 42.7722832,9.00439502 42.1576455,9.66190817 C40.5853179,11.3771722 39.2959952,13.6796849 38.8528836,15.9095272 C38.7528257,16.4098213 38.6955838,16.9092545 38.6955838,17.3952415 C38.6814474,19.2248598 39.6419411,20.752424 42.1290741,20.6952415 C44.7734489,20.6094785 47.1850238,19.0679211 49.2719312,16.8809558 C48.7430581,18.2817573 48.2863632,19.4948697 48.0290741,20.1380986 C47.2429118,22.0820712 46.6726063,23.642344 45.4862169,24.5571463 L45.6290741,24.7857177 C49.1167861,24.9858259 50.4187183,22.5403981 51.8624074,18.5238129 C52.1911632,17.6233055 52.4907914,16.752875 52.8052646,15.9095272 C53.8344242,13.0078739 54.7334169,10.4915554 55.4766931,8.61905102 C56.991852,8.61905102 59.1664745,8.67634931 60.381455,8.39047959 C57.8657324,9.50540226 55.6627792,12.8935211 55.0195503,15.9095272 C54.8480196,16.7099859 54.776655,17.4805444 54.8481217,18.1952415 C54.9910703,19.6532148 55.8470459,20.6666701 57.733836,20.6666701 C60.4353811,20.6809665 62.8234421,18.3109078 64.3528836,15.9095272 C64.8674634,15.0947813 65.295564,14.2670815 65.5957408,13.5523844 C66.2675488,11.9085885 66.695692,10.5198434 66.781455,9.13333674 C67.6390977,8.97610702 68.4717072,8.81909064 68.8719312,8.76190817 C69.6866893,8.64756455 69.5292112,9.53294512 69.2862169,10.219051 C68.6429895,11.9629047 67.8294931,14.0656247 67.0862169,15.9095272 C66.0713537,18.4109657 65.2100265,20.4237946 65.2100265,20.4666701 L68.0576455,20.4666701 C68.9438672,18.5798785 69.6001217,17.1959866 70.2719312,15.9095272 C70.5149362,15.437835 70.7574977,14.9955066 71.0147884,14.5380986 C72.1868813,12.4940804 74.8332295,9.10476531 75.8909789,9.10476531 C76.2626208,9.09048112 76.3624577,9.34741674 76.2909789,9.70476531 C76.1480425,10.633864 74.5296531,13.4080994 73.5290741,15.9095272 L76.7052646,15.9095272 C76.933964,15.380651 77.1480333,14.9239988 77.3052646,14.5952415 C78.1771929,12.7227386 79.7338848,9.9913314 79.6481217,8.50476531 C79.6338269,8.30466017 79.5767419,8.10486283 79.4909789,7.93333674 L75.2766931,7.91905102 C73.8472973,8.83386702 72.4583404,10.4322411 71.2433598,12.3476225 L71.1862169,12.319051 C71.9580905,10.5894815 72.5576547,8.94806131 72.5433598,8.17619388 C72.5433644,8.09043236 72.5290726,8.00481407 72.5147884,7.91905102 C72.4147244,7.3758815 72.0152196,7.14761331 71.2576455,7.16190817 C70.6430032,7.16190817 69.8152592,7.40463731 69.0005027,7.61905102 C68.6145644,7.71909826 68.2293103,7.81899312 67.8290741,7.91905102 C67.0286261,8.11916988 66.1962497,8.31895502 65.3100265,8.50476531 C64.4952821,8.63341597 64.2385979,8.76174207 64.2385979,9.04762245 C64.3243609,11.3918205 63.5534794,13.9655668 62.5100265,15.9095272 C61.4951632,17.7820316 60.224911,19.0952415 59.1957408,19.0952415 C58.2952318,19.09524 58.0766931,18.4529009 58.0766931,17.5380986 C58.0766931,17.0378015 58.1337674,16.4955859 58.2624074,15.9095272 C58.891343,12.7934602 61.094508,8.87660531 63.2528836,8.16190817 C63.48158,8.0904415 63.6956539,8.04765293 63.8528836,8.00476531 L63.881455,7.91905102 L64.1671693,7.14762245 C63.6240089,7.24768036 62.3389804,7.27619388 61.6671693,7.27619388 C60.9810634,7.29049026 56.033836,7.29047959 56.033836,7.29047959 C57.5204006,3.74559578 59.6082848,1.45720264 62.6528836,1.34286055 C64.5539701,1.25709597 65.8242421,1.97079502 65.9385979,3.07143197 C66.0243609,3.98623578 65.7532935,4.73289788 65.0243122,5.50476531 L65.2385979,5.70476531 C66.8966916,4.91859997 68.0576455,3.57196074 68.0576455,2.65714626 C68.0719404,1.24205902 66.3830215,0.371422832 63.6528836,0.400003403 Z M75.2766931,7.91905102 L79.4909789,7.91905102 C79.2336867,7.46164455 78.6914985,7.10476531 77.7909789,7.10476531 C76.9476478,7.10476531 76.1057339,7.40447274 75.2766931,7.91905102 Z M73.5290741,15.9095272 C73.0573758,17.0816308 72.7147792,18.1947524 72.7290741,19.0523844 C72.7576669,20.7533626 73.6900783,21.7854906 75.2624074,22.171432 L75.5766931,21.9857177 C75.3908691,21.6283706 75.3624166,21.1384019 75.3481217,20.6095272 C75.3338253,19.323083 76.0763305,17.3675021 76.7052646,15.9238129 L73.5290741,15.9095272 Z M87.1671693,1.84286055 C86.3810055,1.85715693 85.5815526,2.5852194 85.4100265,3.45714626 C85.2242009,4.34337255 85.723852,5.04763312 86.5243122,5.03333674 C87.3247724,5.01904188 88.1099183,4.2862175 88.2957408,3.41428912 C88.4672714,2.52806436 87.9676189,1.82856569 87.1671693,1.84286055 Z M42.7005027,1.92857483 L39.9243122,2.45714626 C39.5097811,2.55720417 39.2529613,2.87125521 39.1100265,3.18571769 C38.3953293,4.67228074 37.6818939,6.2180834 36.9100265,7.91905102 L40.0671693,7.91905102 C41.1249187,5.61774207 42.114444,3.50090245 42.7005027,1.92857483 Z M36.9100265,7.91905102 C36.223919,9.44850474 35.4961888,11.094184 34.6957408,12.9380986 C34.5099198,13.3526175 34.3068021,13.794987 34.1195503,14.2523844 C33.7136089,14.8241451 33.2779152,15.3806525 32.8147884,15.9095272 C31.2696227,17.6676773 29.4718931,19.0238023 27.8624074,19.0380986 C26.990479,19.0523844 26.6024059,18.5529604 26.6052646,17.5380986 C26.6066939,17.0378015 26.7033019,16.3812316 26.8005027,15.9095272 C26.823375,15.8094785 26.8457369,15.7095775 26.8671693,15.6238129 C28.8483107,14.6375318 30.8366246,13.5344034 32.6290741,11.6761939 C33.6210726,10.6041482 34.3100173,9.54825788 34.3243122,8.43333674 C34.3243107,8.24751578 34.3100448,8.07628226 34.2671693,7.91905102 C34.0913537,7.2043554 33.4582627,6.84762245 32.3862169,6.83333674 C32.3178741,6.83244378 32.2460371,6.83081788 32.1766931,6.83333674 C31.1365286,6.87113026 29.9918779,7.28923007 28.9385979,7.91905102 C28.1324189,8.40505026 27.3789484,9.00439502 26.7671693,9.66190817 C25.19198,11.3771722 23.9031343,13.6796849 23.4671693,15.9095272 C23.3685514,16.4098213 23.3157438,16.9092545 23.3100265,17.3952415 C23.2900128,19.2677474 24.1776912,20.752424 26.6005027,20.6952415 C29.189135,20.6094785 31.7202253,18.6103379 33.033836,17.1809558 C32.8637392,17.7812971 32.7576455,18.3520903 32.7576455,18.8523844 C32.7576455,20.5104781 33.5890817,21.6854251 35.2243122,22.2000034 L35.5528836,22.0428605 C35.4099381,21.5854541 35.367151,21.1241268 35.4100265,20.5809558 C35.5100859,19.2373245 35.9667792,17.7534419 36.6528836,15.9095272 C36.7958169,15.5378929 36.9527952,15.152619 37.1100265,14.7380986 C37.9819533,12.5225405 39.0665903,10.1346 40.0671693,7.93333674 L36.9100265,7.91905102 Z M94.5005027,6.97619388 C93.4856409,6.99048874 92.3106817,7.29011845 91.1671693,7.91905102 C90.3810055,8.36216264 89.5961522,8.96146778 88.881455,9.73333674 C87.0707594,11.700875 86.0170284,14.025291 85.5719312,15.9095272 L85.5671693,15.9095272 C85.566255,15.91428 85.5680836,15.9190693 85.5671693,15.9238129 C85.496623,16.2899844 85.4239663,16.6278312 85.3957408,16.9523844 C84.3951587,18.124488 83.2913979,18.8952308 82.5481217,18.9095272 C82.1335907,18.93812 81.8481217,18.7240781 81.8481217,18.2666701 C81.8338253,17.8807425 82.0478947,17.0958282 82.433836,16.0809558 C82.462412,16.023784 82.4766733,15.9667112 82.5052646,15.9095272 C83.3771899,13.722571 84.6234528,11.0637093 86.1385979,7.91905102 C86.2529491,7.69035312 86.3671114,7.43348455 86.481455,7.19047959 C86.481452,7.19047959 83.8959571,7.63328797 83.5243122,7.71905102 C83.3670794,7.76194017 83.2196295,7.83328797 83.0909789,7.91905102 C82.9051609,8.04770169 82.7481811,8.23319959 82.6481217,8.46190817 C81.5474985,10.7918099 80.2343053,13.5226594 79.4052646,15.5380986 C79.3623815,15.6667386 79.305295,15.7808887 79.2624074,15.9095272 C78.8335907,17.0387432 78.5909789,18.094859 78.5909789,18.7523844 C78.5909789,19.9959577 79.3758215,20.7666899 80.8909789,20.7380986 C82.4632958,20.6952095 84.0806916,19.7674045 85.4100265,18.4809558 C85.6673126,19.8388697 86.6374627,20.8095562 88.6243122,20.7523844 C90.6826314,20.6952049 92.6711389,19.3818167 94.0576455,17.8809558 C94.0576425,18.0238891 94.0433598,18.1808659 94.0433598,18.3238129 C94.0433583,19.7103196 94.77102,20.7380986 96.3576455,20.7380986 C98.0729065,20.7380971 100.047242,19.4536583 101.590979,17.2380986 L101.648122,17.2666701 C101.505185,17.7812484 101.348132,18.6806145 101.333836,19.2809558 C101.290961,20.9533428 102.275892,21.899848 103.676693,22.1857177 L103.990979,22.0571463 C103.504981,20.8421687 104.190802,17.8243783 104.490979,16.8238129 C104.591034,16.5236362 104.690919,16.2240004 104.790979,15.9095272 C105.777265,12.9221108 107.147623,9.73437445 108.01955,7.91905102 C108.048143,7.87617559 108.062398,7.81907083 108.090979,7.77619388 C107.662167,7.41884683 106.648739,7.14764378 105.576693,7.11905102 C105.3873,7.11190436 105.199281,7.10748836 105.010026,7.10952721 C103.6969,7.12366969 102.391657,7.36670359 101.138598,7.91905102 L101.105265,7.91905102 C99.1469987,8.80527426 97.3299366,10.4222845 95.8290741,13.0809558 C95.3716691,13.8671196 94.8721263,14.7946625 94.5290741,15.7952415 C94.4862002,15.8381185 94.4576653,15.8809482 94.4290741,15.9095272 C94.0860219,16.3383531 93.7577339,16.7237245 93.6005027,16.8809558 C92.6571122,17.7957703 91.310799,18.9523645 89.9528836,18.9809558 C89.1667244,18.9809543 88.7385994,18.4386472 88.7528836,17.4809558 C88.7528806,16.9806724 88.8099701,16.4526876 88.9243122,15.9238129 L87.2481217,15.9142891 L88.9243122,15.9095272 C89.624716,12.3789398 92.3422642,8.14762093 94.2576455,8.13333674 C94.8722878,8.13333674 95.1290741,8.40447121 95.1290741,8.91905102 C95.1290741,9.53368874 94.7008349,10.3901779 94.1147884,10.9333367 L94.3719312,11.1619082 C95.8441994,10.5901459 97.2290634,9.54823807 97.2433598,8.46190817 C97.2433568,8.26179083 97.2005423,8.07628226 97.1290741,7.91905102 C96.7717255,7.13288721 95.5868448,6.97619388 94.5005027,6.97619388 Z M31.5243122,8.17619388 C31.9474101,8.19049026 32.1162177,8.47598055 32.1147974,8.86190817 C32.1062093,10.6200598 29.9254337,12.8942922 27.133836,14.5523844 C27.8342368,11.7936659 29.7918931,8.17619388 31.5243122,8.17619388 Z M46.9147884,8.17619388 C47.3436051,8.19049026 47.5005027,8.47598055 47.5005027,8.86190817 C47.4862063,10.6200598 45.3163838,12.8942922 42.5290741,14.5523844 C43.2151785,11.7936659 45.1852295,8.17619388 46.9147884,8.17619388 Z M104.252884,8.26667007 C104.502255,8.25941521 104.733711,8.2850975 104.948122,8.33333674 C104.733708,8.77644836 103.734286,10.7894434 102.948122,12.6047653 C102.447835,13.7625725 101.86279,14.9089619 101.205265,15.9095272 C100.247578,17.3532164 99.1868051,18.4665238 98.1719312,18.7238129 C97.5715914,18.8667478 97.2290634,18.6098396 97.2433598,18.0523844 C97.2576516,17.4663394 97.4146314,16.7242838 97.6862169,15.9095272 C98.5724402,13.1794 100.704041,9.63390359 102.833836,8.63333674 C103.369859,8.38318969 103.837265,8.27876302 104.252884,8.26667007 Z M52.6862169,30.3333367 C25.7708707,30.3725946 0.0909788512,30.7027493 0.0909788512,31.1047653 C0.0909788512,31.533579 29.3073735,31.8904796 58.0766931,31.8904796 C86.8360059,31.8904796 116.052884,31.5335805 116.052884,31.1047653 C116.052884,30.675947 86.8360059,30.3333367 58.0766931,30.3333367 C56.2786101,30.3333367 54.4805728,30.3307188 52.6862169,30.3333367 Z" id="path2259"></path>
            </g>
        </g>
    </g>
</svg>