<svg xmlns="http://www.w3.org/2000/svg" width="24" height="32" viewBox="0 0 24 32">
  <path fill="#FFF" d="M12.5978723,27.8638298 C6.29787234,27.8638298 1,22.7319149 1,16.4319149 C1,10.1319149 6.29787234,5 12.5978723,5 C16.0829787,5 18.5659574,6.36595745 20.4297872,8.15319149 L18.2276596,10.3553191 C16.887234,9.09787234 15.0808511,8.12765957 12.5978723,8.12765957 C7.99574468,8.12765957 4.40212766,11.8361702 4.40212766,16.4382979 C4.40212766,21.0404255 8.00212766,24.7489362 12.5978723,24.7489362 C15.5787234,24.7489362 17.2829787,23.5489362 18.3680851,22.4638298 C19.2617021,21.5702128 19.8489362,20.287234 20.0659574,18.5319149 L12.5978723,18.5319149 L12.5978723,15.4106383 L23.1106383,15.4106383 C23.2255319,15.9659574 23.2765957,16.6361702 23.2765957,17.3638298 C23.2765957,19.706383 22.6319149,22.6042553 20.5702128,24.6659574 C18.5659574,26.7468085 16,27.8638298 12.5978723,27.8638298 Z"/>
</svg>
