<?xml version="1.0" encoding="UTF-8"?>
<svg width="117px" height="32px" viewBox="0 0 117 32" version="1.1" xmlns="http://www.w3.org/2000/svg" xmlns:xlink="http://www.w3.org/1999/xlink">
    <title>logo</title>
    <g id="logo" stroke="none" stroke-width="1" fill="none" fill-rule="evenodd">
        <g id="Group" transform="translate(8.000000, 4.000000)" fill="#FFFFFF">
            <path d="M28.581455,0.128574832 C27.909644,0.471639213 26.4216943,0.55714626 25.1766931,0.55714626 L12.8909789,0.55714626 C5.98559676,0.55714626 1.74756552,2.81711426 1.05288361,6.20476531 C0.935669137,6.79081178 0.977069518,7.39017636 1.16716933,7.91905102 L3.46240742,7.91905102 C3.63250418,4.25981445 7.56794495,2.17143197 13.6957408,2.17143197 L17.1147884,2.15714626 C15.12222,3.32924988 13.4607556,4.86025483 12.181455,7.74762245 C12.1600135,7.80479426 12.1338558,7.86188074 12.1052646,7.91905102 L15.5528836,7.91905102 C16.8464912,4.71722245 17.7416394,3.08625559 19.0766931,2.15714626 L24.0528836,2.15714626 C26.7658649,2.08567807 27.9381164,1.40059921 28.7671693,0.35714626 L28.581455,0.128574832 Z M12.1052646,7.91905102 C11.6035518,9.10544036 10.1306863,12.8506457 8.98145504,15.9095272 C8.57836171,16.9815714 8.21541923,17.9662404 7.94812171,18.7238129 C6.62307485,22.2829901 5.77587028,23.9139463 4.71955028,24.5142891 L4.89097885,24.8428605 C7.85696133,25.0143882 9.61889504,23.4968461 10.7624074,20.6952415 C11.3184455,19.3373261 11.9663526,17.5676194 12.5624074,15.9095272 C13.1255815,14.3514929 13.6403061,12.8909977 13.9862169,11.9761939 C14.5837118,10.4038647 15.0940585,9.06255426 15.5528836,7.93333674 L12.1052646,7.91905102 Z M1.16716933,7.91905102 C1.50737352,8.90533369 2.33929276,9.69041102 3.62431218,9.81905102 L3.80050266,9.69047959 C3.54321199,9.23307159 3.44620933,8.49074321 3.45764552,8.03333674 C3.45907485,8.00474397 3.46097809,7.96192797 3.46240742,7.93333674 L1.16716933,7.91905102 Z M55.6528836,0.400003403 C52.1937644,0.428596165 47.921263,1.21552036 44.933836,7.39047959 C44.3763808,7.47624417 43.848396,7.64746702 43.3766931,7.91905102 C43.0765301,8.1048735 42.8054109,8.30460988 42.5481217,8.57619388 L42.6766931,8.86190817 C43.1626924,8.69038207 43.7334627,8.64762245 44.3766931,8.64762245 C43.9764554,9.66248569 43.1486124,11.8796743 42.3052646,14.1238129 C41.8095206,14.7895272 41.3106009,15.3841847 40.8147884,15.9095272 L40.8005027,15.9095272 C38.8136531,18.0250259 36.9013438,19.0238023 35.4290741,19.0380986 C34.4142109,19.0523844 34.0005027,18.5100956 34.0005027,17.5238129 C33.9862093,17.0378137 34.0861575,16.3812316 34.1862169,15.9095272 C34.214796,15.8094785 34.2290528,15.7095775 34.2576455,15.6238129 C36.244495,14.6375318 38.228047,13.5344034 40.0147884,11.6761939 C41.0010604,10.6041482 41.6862093,9.54825788 41.7147884,8.43333674 C41.7147884,8.24751578 41.7005209,8.07628226 41.6576455,7.91905102 C41.4718246,7.2043554 40.8439648,6.84762245 39.7719312,6.83333674 C39.7031419,6.83244378 39.6368044,6.83081788 39.5671693,6.83333674 C38.5226543,6.87113026 37.3877149,7.28923007 36.3290741,7.91905102 C35.5286124,8.40505026 34.7722832,9.00439502 34.1576455,9.66190817 C32.5853179,11.3771722 31.2959952,13.6796849 30.8528836,15.9095272 C30.7528257,16.4098213 30.6955838,16.9092545 30.6955838,17.3952415 C30.6814474,19.2248598 31.6419411,20.752424 34.1290741,20.6952415 C36.7734489,20.6094785 39.1850238,19.0679211 41.2719312,16.8809558 C40.7430581,18.2817573 40.2863632,19.4948697 40.0290741,20.1380986 C39.2429118,22.0820712 38.6726063,23.642344 37.4862169,24.5571463 L37.6290741,24.7857177 C41.1167861,24.9858259 42.4187183,22.5403981 43.8624074,18.5238129 C44.1911632,17.6233055 44.4907914,16.752875 44.8052646,15.9095272 C45.8344242,13.0078739 46.7334169,10.4915554 47.4766931,8.61905102 C48.991852,8.61905102 51.1664745,8.67634931 52.381455,8.39047959 C49.8657324,9.50540226 47.6627792,12.8935211 47.0195503,15.9095272 C46.8480196,16.7099859 46.776655,17.4805444 46.8481217,18.1952415 C46.9910703,19.6532148 47.8470459,20.6666701 49.733836,20.6666701 C52.4353811,20.6809665 54.8234421,18.3109078 56.3528836,15.9095272 C56.8674634,15.0947813 57.295564,14.2670815 57.5957408,13.5523844 C58.2675488,11.9085885 58.695692,10.5198434 58.781455,9.13333674 C59.6390977,8.97610702 60.4717072,8.81909064 60.8719312,8.76190817 C61.6866893,8.64756455 61.5292112,9.53294512 61.2862169,10.219051 C60.6429895,11.9629047 59.8294931,14.0656247 59.0862169,15.9095272 C58.0713537,18.4109657 57.2100265,20.4237946 57.2100265,20.4666701 L60.0576455,20.4666701 C60.9438672,18.5798785 61.6001217,17.1959866 62.2719312,15.9095272 C62.5149362,15.437835 62.7574977,14.9955066 63.0147884,14.5380986 C64.1868813,12.4940804 66.8332295,9.10476531 67.8909789,9.10476531 C68.2626208,9.09048112 68.3624577,9.34741674 68.2909789,9.70476531 C68.1480425,10.633864 66.5296531,13.4080994 65.5290741,15.9095272 L68.7052646,15.9095272 C68.933964,15.380651 69.1480333,14.9239988 69.3052646,14.5952415 C70.1771929,12.7227386 71.7338848,9.9913314 71.6481217,8.50476531 C71.6338269,8.30466017 71.5767419,8.10486283 71.4909789,7.93333674 L67.2766931,7.91905102 C65.8472973,8.83386702 64.4583404,10.4322411 63.2433598,12.3476225 L63.1862169,12.319051 C63.9580905,10.5894815 64.5576547,8.94806131 64.5433598,8.17619388 C64.5433644,8.09043236 64.5290726,8.00481407 64.5147884,7.91905102 C64.4147244,7.3758815 64.0152196,7.14761331 63.2576455,7.16190817 C62.6430032,7.16190817 61.8152592,7.40463731 61.0005027,7.61905102 C60.6145644,7.71909826 60.2293103,7.81899312 59.8290741,7.91905102 C59.0286261,8.11916988 58.1962497,8.31895502 57.3100265,8.50476531 C56.4952821,8.63341597 56.2385979,8.76174207 56.2385979,9.04762245 C56.3243609,11.3918205 55.5534794,13.9655668 54.5100265,15.9095272 C53.4951632,17.7820316 52.224911,19.0952415 51.1957408,19.0952415 C50.2952318,19.09524 50.0766931,18.4529009 50.0766931,17.5380986 C50.0766931,17.0378015 50.1337674,16.4955859 50.2624074,15.9095272 C50.891343,12.7934602 53.094508,8.87660531 55.2528836,8.16190817 C55.48158,8.0904415 55.6956539,8.04765293 55.8528836,8.00476531 L55.881455,7.91905102 L56.1671693,7.14762245 C55.6240089,7.24768036 54.3389804,7.27619388 53.6671693,7.27619388 C52.9810634,7.29049026 48.033836,7.29047959 48.033836,7.29047959 C49.5204006,3.74559578 51.6082848,1.45720264 54.6528836,1.34286055 C56.5539701,1.25709597 57.8242421,1.97079502 57.9385979,3.07143197 C58.0243609,3.98623578 57.7532935,4.73289788 57.0243122,5.50476531 L57.2385979,5.70476531 C58.8966916,4.91859997 60.0576455,3.57196074 60.0576455,2.65714626 C60.0719404,1.24205902 58.3830215,0.371422832 55.6528836,0.400003403 Z M67.2766931,7.91905102 L71.4909789,7.91905102 C71.2336867,7.46164455 70.6914985,7.10476531 69.7909789,7.10476531 C68.9476478,7.10476531 68.1057339,7.40447274 67.2766931,7.91905102 Z M65.5290741,15.9095272 C65.0573758,17.0816308 64.7147792,18.1947524 64.7290741,19.0523844 C64.7576669,20.7533626 65.6900783,21.7854906 67.2624074,22.171432 L67.5766931,21.9857177 C67.3908691,21.6283706 67.3624166,21.1384019 67.3481217,20.6095272 C67.3338253,19.323083 68.0763305,17.3675021 68.7052646,15.9238129 L65.5290741,15.9095272 Z M79.1671693,1.84286055 C78.3810055,1.85715693 77.5815526,2.5852194 77.4100265,3.45714626 C77.2242009,4.34337255 77.723852,5.04763312 78.5243122,5.03333674 C79.3247724,5.01904188 80.1099183,4.2862175 80.2957408,3.41428912 C80.4672714,2.52806436 79.9676189,1.82856569 79.1671693,1.84286055 Z M34.7005027,1.92857483 L31.9243122,2.45714626 C31.5097811,2.55720417 31.2529613,2.87125521 31.1100265,3.18571769 C30.3953293,4.67228074 29.6818939,6.2180834 28.9100265,7.91905102 L32.0671693,7.91905102 C33.1249187,5.61774207 34.114444,3.50090245 34.7005027,1.92857483 Z M28.9100265,7.91905102 C28.223919,9.44850474 27.4961888,11.094184 26.6957408,12.9380986 C26.5099198,13.3526175 26.3068021,13.794987 26.1195503,14.2523844 C25.7136089,14.8241451 25.2779152,15.3806525 24.8147884,15.9095272 C23.2696227,17.6676773 21.4718931,19.0238023 19.8624074,19.0380986 C18.990479,19.0523844 18.6024059,18.5529604 18.6052646,17.5380986 C18.6066939,17.0378015 18.7033019,16.3812316 18.8005027,15.9095272 C18.823375,15.8094785 18.8457369,15.7095775 18.8671693,15.6238129 C20.8483107,14.6375318 22.8366246,13.5344034 24.6290741,11.6761939 C25.6210726,10.6041482 26.3100173,9.54825788 26.3243122,8.43333674 C26.3243107,8.24751578 26.3100448,8.07628226 26.2671693,7.91905102 C26.0913537,7.2043554 25.4582627,6.84762245 24.3862169,6.83333674 C24.3178741,6.83244378 24.2460371,6.83081788 24.1766931,6.83333674 C23.1365286,6.87113026 21.9918779,7.28923007 20.9385979,7.91905102 C20.1324189,8.40505026 19.3789484,9.00439502 18.7671693,9.66190817 C17.19198,11.3771722 15.9031343,13.6796849 15.4671693,15.9095272 C15.3685514,16.4098213 15.3157438,16.9092545 15.3100265,17.3952415 C15.2900128,19.2677474 16.1776912,20.752424 18.6005027,20.6952415 C21.189135,20.6094785 23.7202253,18.6103379 25.033836,17.1809558 C24.8637392,17.7812971 24.7576455,18.3520903 24.7576455,18.8523844 C24.7576455,20.5104781 25.5890817,21.6854251 27.2243122,22.2000034 L27.5528836,22.0428605 C27.4099381,21.5854541 27.367151,21.1241268 27.4100265,20.5809558 C27.5100859,19.2373245 27.9667792,17.7534419 28.6528836,15.9095272 C28.7958169,15.5378929 28.9527952,15.152619 29.1100265,14.7380986 C29.9819533,12.5225405 31.0665903,10.1346 32.0671693,7.93333674 L28.9100265,7.91905102 Z M86.5005027,6.97619388 C85.4856409,6.99048874 84.3106817,7.29011845 83.1671693,7.91905102 C82.3810055,8.36216264 81.5961522,8.96146778 80.881455,9.73333674 C79.0707594,11.700875 78.0170284,14.025291 77.5719312,15.9095272 L77.5671693,15.9095272 C77.566255,15.91428 77.5680836,15.9190693 77.5671693,15.9238129 C77.496623,16.2899844 77.4239663,16.6278312 77.3957408,16.9523844 C76.3951587,18.124488 75.2913979,18.8952308 74.5481217,18.9095272 C74.1335907,18.93812 73.8481217,18.7240781 73.8481217,18.2666701 C73.8338253,17.8807425 74.0478947,17.0958282 74.433836,16.0809558 C74.462412,16.023784 74.4766733,15.9667112 74.5052646,15.9095272 C75.3771899,13.722571 76.6234528,11.0637093 78.1385979,7.91905102 C78.2529491,7.69035312 78.3671114,7.43348455 78.481455,7.19047959 C78.481452,7.19047959 75.8959571,7.63328797 75.5243122,7.71905102 C75.3670794,7.76194017 75.2196295,7.83328797 75.0909789,7.91905102 C74.9051609,8.04770169 74.7481811,8.23319959 74.6481217,8.46190817 C73.5474985,10.7918099 72.2343053,13.5226594 71.4052646,15.5380986 C71.3623815,15.6667386 71.305295,15.7808887 71.2624074,15.9095272 C70.8335907,17.0387432 70.5909789,18.094859 70.5909789,18.7523844 C70.5909789,19.9959577 71.3758215,20.7666899 72.8909789,20.7380986 C74.4632958,20.6952095 76.0806916,19.7674045 77.4100265,18.4809558 C77.6673126,19.8388697 78.6374627,20.8095562 80.6243122,20.7523844 C82.6826314,20.6952049 84.6711389,19.3818167 86.0576455,17.8809558 C86.0576425,18.0238891 86.0433598,18.1808659 86.0433598,18.3238129 C86.0433583,19.7103196 86.77102,20.7380986 88.3576455,20.7380986 C90.0729065,20.7380971 92.0472425,19.4536583 93.5909789,17.2380986 L93.6481217,17.2666701 C93.5051853,17.7812484 93.3481324,18.6806145 93.333836,19.2809558 C93.2909606,20.9533428 94.2758916,21.899848 95.6766931,22.1857177 L95.9909789,22.0571463 C95.5049811,20.8421687 96.1908021,17.8243783 96.4909789,16.8238129 C96.5910337,16.5236362 96.6909194,16.2240004 96.7909789,15.9095272 C97.7772646,12.9221108 99.1476234,9.73437445 100.01955,7.91905102 C100.048143,7.87617559 100.062398,7.81907083 100.090979,7.77619388 C99.6621667,7.41884683 98.6487389,7.14764378 97.5766931,7.11905102 C97.3873004,7.11190436 97.1992806,7.10748836 97.0100265,7.10952721 C95.6969004,7.12366969 94.3916569,7.36670359 93.1385979,7.91905102 L93.1052646,7.91905102 C91.1469987,8.80527426 89.3299366,10.4222845 87.8290741,13.0809558 C87.3716691,13.8671196 86.8721263,14.7946625 86.5290741,15.7952415 C86.4862002,15.8381185 86.4576653,15.8809482 86.4290741,15.9095272 C86.0860219,16.3383531 85.7577339,16.7237245 85.6005027,16.8809558 C84.6571122,17.7957703 83.310799,18.9523645 81.9528836,18.9809558 C81.1667244,18.9809543 80.7385994,18.4386472 80.7528836,17.4809558 C80.7528806,16.9806724 80.8099701,16.4526876 80.9243122,15.9238129 L79.2481217,15.9142891 L80.9243122,15.9095272 C81.624716,12.3789398 84.3422642,8.14762093 86.2576455,8.13333674 C86.8722878,8.13333674 87.1290741,8.40447121 87.1290741,8.91905102 C87.1290741,9.53368874 86.7008349,10.3901779 86.1147884,10.9333367 L86.3719312,11.1619082 C87.8441994,10.5901459 89.2290634,9.54823807 89.2433598,8.46190817 C89.2433568,8.26179083 89.2005423,8.07628226 89.1290741,7.91905102 C88.7717255,7.13288721 87.5868448,6.97619388 86.5005027,6.97619388 Z M23.5243122,8.17619388 C23.9474101,8.19049026 24.1162177,8.47598055 24.1147974,8.86190817 C24.1062093,10.6200598 21.9254337,12.8942922 19.133836,14.5523844 C19.8342368,11.7936659 21.7918931,8.17619388 23.5243122,8.17619388 Z M38.9147884,8.17619388 C39.3436051,8.19049026 39.5005027,8.47598055 39.5005027,8.86190817 C39.4862063,10.6200598 37.3163838,12.8942922 34.5290741,14.5523844 C35.2151785,11.7936659 37.1852295,8.17619388 38.9147884,8.17619388 Z M96.2528836,8.26667007 C96.502255,8.25941521 96.733711,8.2850975 96.9481217,8.33333674 C96.733708,8.77644836 95.7342855,10.7894434 94.9481217,12.6047653 C94.4478352,13.7625725 93.8627899,14.9089619 93.2052646,15.9095272 C92.2475777,17.3532164 91.1868051,18.4665238 90.1719312,18.7238129 C89.5715914,18.8667478 89.2290634,18.6098396 89.2433598,18.0523844 C89.2576516,17.4663394 89.4146314,16.7242838 89.6862169,15.9095272 C90.5724402,13.1794 92.7040409,9.63390359 94.833836,8.63333674 C95.3698589,8.38318969 95.8372646,8.27876302 96.2528836,8.26667007 Z" id="path2259"></path>
        </g>
    </g>
</svg>