<svg xmlns="http://www.w3.org/2000/svg" width="147" height="32" viewBox="0 0 147 32">
  <g fill="#FFF" transform="translate(1 1)">
    <path d="M11.5978723 22.8638298C5.29787234 22.8638298 1.95399252e-14 17.7319149 1.95399252e-14 11.4319149 1.95399252e-14 5.13191489 5.29787234 0 11.5978723 0 15.0829787 0 17.5659574 1.36595745 19.4297872 3.15319149L17.2276596 5.35531915C15.887234 4.09787234 14.0808511 3.12765957 11.5978723 3.12765957 6.99574468 3.12765957 3.40212766 6.83617021 3.40212766 11.4382979 3.40212766 16.0404255 7.00212766 19.7489362 11.5978723 19.7489362 14.5787234 19.7489362 16.2829787 18.5489362 17.3680851 17.4638298 18.2617021 16.5702128 18.8489362 15.287234 19.0659574 13.5319149L11.5978723 13.5319149 11.5978723 10.4106383 22.1106383 10.4106383C22.2255319 10.9659574 22.2765957 11.6361702 22.2765957 12.3638298 22.2765957 14.706383 21.6319149 17.6042553 19.5702128 19.6659574 17.5659574 21.7468085 15 22.8638298 11.5978723 22.8638298zM38.5340426 15.5042553C38.5340426 19.7425532 35.2787234 22.8638298 31.2829787 22.8638298 27.287234 22.8638298 24.0319149 19.7425532 24.0319149 15.5042553 24.0319149 11.2404255 27.287234 8.14468085 31.2829787 8.14468085 35.2787234 8.14468085 38.5340426 11.2404255 38.5340426 15.5042553zM35.3553191 15.5042553C35.3553191 12.8553191 33.4659574 11.0425532 31.2765957 11.0425532 29.087234 11.0425532 27.1978723 12.8553191 27.1978723 15.5042553 27.1978723 18.1276596 29.087234 19.9659574 31.2765957 19.9659574 33.4659574 19.9659574 35.3553191 18.1276596 35.3553191 15.5042553zM54.7914894 15.5042553C54.7914894 19.7425532 51.5361702 22.8638298 47.5404255 22.8638298 43.5446809 22.8638298 40.2893617 19.7425532 40.2893617 15.5042553 40.2893617 11.2404255 43.5446809 8.14468085 47.5404255 8.14468085 51.5361702 8.14468085 54.7914894 11.2404255 54.7914894 15.5042553zM51.6191489 15.5042553C51.6191489 12.8553191 49.7297872 11.0425532 47.5404255 11.0425532 45.3510638 11.0425532 43.4617021 12.8553191 43.4617021 15.5042553 43.4617021 18.1276596 45.3510638 19.9659574 47.5404255 19.9659574 49.7297872 19.9659574 51.6191489 18.1276596 51.6191489 15.5042553zM70.6468085 8.59148936L70.6468085 21.8042553C70.6468085 27.2425532 67.4425532 29.4702128 63.6510638 29.4702128 60.0829787 29.4702128 57.9382979 27.0702128 57.1276596 25.1234043L59.9425532 23.9553191C60.4468085 25.1553191 61.6723404 26.5723404 63.6510638 26.5723404 66.0765957 26.5723404 67.5829787 25.0659574 67.5829787 22.2510638L67.5829787 21.1914894 67.4680851 21.1914894C66.7404255 22.0851064 65.3489362 22.8638298 63.593617 22.8638298 59.9170213 22.8638298 56.5404255 19.6595745 56.5404255 15.5297872 56.5404255 11.3744681 59.9106383 8.14468085 63.593617 8.14468085 65.3489362 8.14468085 66.7404255 8.92340426 67.4680851 9.79148936L67.5829787 9.79148936 67.5829787 8.59148936 70.6468085 8.59148936zM67.806383 15.5297872C67.806383 12.9382979 66.0765957 11.0425532 63.8744681 11.0425532 61.6468085 11.0425532 59.7765957 12.9382979 59.7765957 15.5297872 59.7765957 18.0957447 61.6468085 19.9595908 63.8744681 19.9595908 66.0765957 19.9659574 67.806383 18.0957447 67.806383 15.5297872z"/>
    <rect width="3.236" height="21.632" x="73.079" y=".785"/>
    <path d="M89.0297872,17.9297872 L91.5382979,19.6021277 C90.7276596,20.8021277 88.7808511,22.8638298 85.4042553,22.8638298 C81.2234043,22.8638298 78.2042553,19.6276596 78.2042553,15.5042553 C78.2042553,11.1255319 81.2489362,8.14468085 85.0404255,8.14468085 C88.8574468,8.14468085 90.7276596,11.1829787 91.3404255,12.8297872 L91.6723404,13.6659574 L81.8297872,17.7382979 C82.5829787,19.212766 83.7510638,19.9659574 85.3978723,19.9659574 C87.0510638,19.9659574 88.193617,19.1553191 89.0297872,17.9297872 Z M81.306383,15.2808511 L87.887234,12.5489362 C87.5234043,11.6297872 86.4382979,10.9851064 85.1553191,10.9851064 C83.5085106,10.9914894 81.2234043,12.4404255 81.306383,15.2808511 Z"/>
  </g>
</svg>
